<?xml version="1.0" encoding="UTF-8"?>
<!DOCTYPE svg PUBLIC "-//W3C//DTD SVG 1.1//EN" "http://www.w3.org/Graphics/SVG/1.1/DTD/svg11.dtd">
<svg xmlns="http://www.w3.org/2000/svg" version="1.1" width="100px" height="100px" style="shape-rendering:geometricPrecision; text-rendering:geometricPrecision; image-rendering:optimizeQuality; fill-rule:evenodd; clip-rule:evenodd" xmlns:xlink="http://www.w3.org/1999/xlink">
<g><path style="opacity:1" fill="#fbfbfb" d="M -0.5,-0.5 C 32.8333,-0.5 66.1667,-0.5 99.5,-0.5C 99.5,32.8333 99.5,66.1667 99.5,99.5C 66.1667,99.5 32.8333,99.5 -0.5,99.5C -0.5,66.1667 -0.5,32.8333 -0.5,-0.5 Z"/></g>
<g><path style="opacity:1" fill="#050505" d="M 46.5,25.5 C 46.5,27.5 46.5,29.5 46.5,31.5C 41.8333,31.5 37.1667,31.5 32.5,31.5C 32.6621,29.4727 32.4955,27.4727 32,25.5C 28.8114,22.5071 26.9781,23.1737 26.5,27.5C 26.577,29.299 27.077,30.9656 28,32.5C 33,37.5 38,42.5 43,47.5C 48.5957,57.5571 48.9291,67.8904 44,78.5C 34.083,86.677 24.4164,86.3437 15,77.5C 12.7195,70.7215 11.8861,63.7215 12.5,56.5C 17.1667,56.5 21.8333,56.5 26.5,56.5C 26.3343,60.8461 26.501,65.1794 27,69.5C 29,70.8333 31,70.8333 33,69.5C 33.7383,65.7387 33.4049,62.0721 32,58.5C 27.0328,52.5315 21.6995,46.8648 16,41.5C 11.3807,32.8061 11.3807,24.1395 16,15.5C 24.9158,8.9515 33.9158,8.9515 43,15.5C 45.0347,18.5612 46.2014,21.8945 46.5,25.5 Z"/></g>
<g><path style="opacity:1" fill="#060606" d="M 50.5,11.5 C 55.1667,11.5 59.8333,11.5 64.5,11.5C 65.5758,26.8664 67.0758,42.1997 69,57.5C 70.8296,42.1972 72.3296,26.8639 73.5,11.5C 78.1667,11.5 82.8333,11.5 87.5,11.5C 84.3348,35.488 81.3348,59.488 78.5,83.5C 71.8333,83.5 65.1667,83.5 58.5,83.5C 56.3265,59.4455 53.6599,35.4455 50.5,11.5 Z"/></g>
<g><path style="opacity:1" fill="#979797" d="M 46.5,25.5 C 47.4682,27.6074 47.8016,29.9407 47.5,32.5C 42.3054,32.8205 37.3054,32.4872 32.5,31.5C 37.1667,31.5 41.8333,31.5 46.5,31.5C 46.5,29.5 46.5,27.5 46.5,25.5 Z"/></g>
</svg>
